<?xml version="1.0" standalone="no"?>
<!DOCTYPE svg PUBLIC "-//W3C//DTD SVG 20010904//EN"
 "http://www.w3.org/TR/2001/REC-SVG-20010904/DTD/svg10.dtd">
<svg version="1.0" xmlns="http://www.w3.org/2000/svg"
 width="200.000000pt" height="200.000000pt" viewBox="0 0 200.000000 200.000000"
 preserveAspectRatio="xMidYMid meet">

<g transform="translate(0.000000,200.000000) scale(0.100000,-0.100000)"
fill="#000000" stroke="none">
<path d="M920 1728 c-26 -59 -228 -761 -223 -773 3 -8 31 -22 62 -31 148 -42
191 -55 191 -61 0 -4 -25 -119 -55 -257 -31 -137 -55 -259 -53 -271 7 -46 41
-28 144 77 254 262 534 558 534 567 0 19 -31 39 -179 115 -83 42 -151 79 -151
82 0 2 47 99 105 214 58 115 105 219 105 230 0 12 -10 25 -22 30 -26 11 -412
100 -434 100 -8 0 -19 -10 -24 -22z"/>
<path d="M720 1635 c-22 -27 -238 -769 -229 -786 5 -10 53 -29 129 -49 66 -18
120 -38 120 -44 0 -6 -23 -112 -50 -236 -28 -124 -50 -233 -50 -242 0 -22 38
-34 56 -17 20 21 129 529 117 547 -5 9 -60 29 -123 46 -62 17 -115 36 -117 43
-2 6 41 164 97 350 56 186 103 345 106 354 5 16 -19 49 -35 49 -5 0 -14 -7
-21 -15z"/>
</g>
</svg>
